<svg width="420" height="420" viewBox="0 0 512 512" xmlns="http://www.w3.org/2000/svg" fill="none">
  <!-- cake body -->
  <path
    d="M136 228
       C136 205 154 188 177 188
       H335
       C358 188 376 205 376 228
       V315
       C376 338 358 356 335 356
       H177
       C154 356 136 338 136 315
       V228Z"
    fill="#111111"
  />

  <!-- cake top cream -->
  <path
    d="M170 188
       C182 156 211 136 256 136
       C301 136 330 156 342 188
       H170Z"
    fill="#111111"
  />

  <!-- strawberry -->
  <path
    d="M256 108
       C239 108 226 121 226 138
       C226 161 244 179 256 188
       C268 179 286 161 286 138
       C286 121 273 108 256 108Z"
    fill="#111111"
  />

  <!-- plate -->
  <path
    d="M168 390
       C168 381 176 374 186 374
       H326
       C336 374 344 381 344 390
       C344 399 336 406 326 406
       H186
       C176 406 168 399 168 390Z"
    fill="#111111"
  />
</svg>