<svg width="240" height="240" viewBox="0 0 240 240" fill="none" xmlns="http://www.w3.org/2000/svg">
  <!-- plate -->
  <ellipse cx="120" cy="188" rx="68" ry="10" fill="#2B2B2B"/>

  <!-- cake base -->
  <rect x="58" y="108" width="124" height="60" rx="10" fill="#F4C27A"/>

  <!-- cream layer -->
  <path d="M58 118
           C68 104, 78 104, 88 118
           C98 132, 108 132, 118 118
           C128 104, 138 104, 148 118
           C158 132, 168 132, 178 118
           L182 118
           L182 140
           L58 140
           Z" fill="#FFF4E8"/>

  <!-- top cream -->
  <path d="M70 108
           C78 92, 92 90, 102 104
           C110 86, 128 86, 136 104
           C146 90, 160 92, 168 108
           Z" fill="#FFF4E8"/>

  <!-- strawberry -->
  <path d="M120 72
           C108 72, 100 82, 100 95
           C100 111, 113 122, 120 128
           C127 122, 140 111, 140 95
           C140 82, 132 72, 120 72
           Z" fill="#D94A4A"/>
  <path d="M120 70
           C114 63, 106 62, 100 67
           C106 67, 111 70, 114 75
           C116 72, 118 71, 120 70
           C122 71, 124 72, 126 75
           C129 70, 134 67, 140 67
           C134 62, 126 63, 120 70
           Z" fill="#4F8A4C"/>
</svg>